<svg width="24" height="24" viewBox="0 0 24 24" fill="none" xmlns="http://www.w3.org/2000/svg">
<path d="M1 10C1 6.68629 3.68629 4 7 4C10.3137 4 13 6.68629 13 10V18C13 21.3137 10.3137 24 7 24C3.68629 24 1 21.3137 1 18V10Z" fill="#42307D"/>
<path d="M16.1716 1.17157C15.4214 0.421426 14.404 0 13.3431 0H7C4.79086 0 3 1.79086 3 4V20C3 22.2091 4.79086 24 7 24H19C21.2091 24 23 22.2091 23 20V9.65685C23 8.59599 22.5786 7.57857 21.8284 6.82843L16.1716 1.17157Z" fill="#9E77ED"/>
<path d="M6 20C6 19.4477 6.44772 19 7 19H13C13.5523 19 14 19.4477 14 20C14 20.5523 13.5523 21 13 21H7C6.44772 21 6 20.5523 6 20Z" fill="#F4EBFF"/>
<path d="M6 17C6 16.4477 6.44772 16 7 16H17C17.5523 16 18 16.4477 18 17C18 17.5523 17.5523 18 17 18H7C6.44772 18 6 17.5523 6 17Z" fill="#F4EBFF"/>
<path d="M6 14C6 13.4477 6.44772 13 7 13H17C17.5523 13 18 13.4477 18 14C18 14.5523 17.5523 15 17 15H7C6.44772 15 6 14.5523 6 14Z" fill="#F4EBFF"/>
</svg>
